<mxfile host="Electron" agent="Mozilla/5.0 (Windows NT 10.0; Win64; x64) AppleWebKit/537.36 (KHTML, like Gecko) draw.io/26.0.4 Chrome/128.0.6613.186 Electron/32.2.5 Safari/537.36" version="26.0.4">
  <diagram name="Página-1" id="qxvP_Bp7JI9Sd5i5RsFQ">
    <mxGraphModel dx="1834" dy="844" grid="1" gridSize="10" guides="1" tooltips="1" connect="1" arrows="1" fold="1" page="0" pageScale="1" pageWidth="827" pageHeight="1169" math="0" shadow="0">
      <root>
        <mxCell id="0" />
        <mxCell id="1" parent="0" />
        <mxCell id="p9WFtLZvtbjoeeWDvilJ-15" style="edgeStyle=orthogonalEdgeStyle;rounded=0;orthogonalLoop=1;jettySize=auto;html=1;entryX=0;entryY=0.5;entryDx=0;entryDy=0;" edge="1" parent="1" source="p9WFtLZvtbjoeeWDvilJ-9" target="p9WFtLZvtbjoeeWDvilJ-14">
          <mxGeometry relative="1" as="geometry" />
        </mxCell>
        <mxCell id="p9WFtLZvtbjoeeWDvilJ-9" value="" style="ellipse;shape=cloud;whiteSpace=wrap;html=1;" vertex="1" parent="1">
          <mxGeometry x="-240" y="270" width="120" height="80" as="geometry" />
        </mxCell>
        <mxCell id="p9WFtLZvtbjoeeWDvilJ-10" value="" style="group" vertex="1" connectable="0" parent="1">
          <mxGeometry x="190" y="280" width="120" height="130" as="geometry" />
        </mxCell>
        <mxCell id="p9WFtLZvtbjoeeWDvilJ-1" value="order-ms" style="rounded=1;whiteSpace=wrap;html=1;" vertex="1" parent="p9WFtLZvtbjoeeWDvilJ-10">
          <mxGeometry width="120" height="60" as="geometry" />
        </mxCell>
        <mxCell id="p9WFtLZvtbjoeeWDvilJ-29" style="edgeStyle=orthogonalEdgeStyle;rounded=0;orthogonalLoop=1;jettySize=auto;html=1;" edge="1" parent="p9WFtLZvtbjoeeWDvilJ-10" source="p9WFtLZvtbjoeeWDvilJ-5">
          <mxGeometry relative="1" as="geometry">
            <mxPoint x="80" y="240" as="targetPoint" />
          </mxGeometry>
        </mxCell>
        <mxCell id="p9WFtLZvtbjoeeWDvilJ-5" value="postgresql" style="strokeWidth=2;html=1;shape=mxgraph.flowchart.database;whiteSpace=wrap;" vertex="1" parent="p9WFtLZvtbjoeeWDvilJ-10">
          <mxGeometry x="50" y="50" width="60" height="80" as="geometry" />
        </mxCell>
        <mxCell id="p9WFtLZvtbjoeeWDvilJ-11" value="" style="group" vertex="1" connectable="0" parent="1">
          <mxGeometry x="430" y="70" width="120" height="130" as="geometry" />
        </mxCell>
        <mxCell id="p9WFtLZvtbjoeeWDvilJ-2" value="payment-ms" style="rounded=1;whiteSpace=wrap;html=1;" vertex="1" parent="p9WFtLZvtbjoeeWDvilJ-11">
          <mxGeometry width="120" height="60" as="geometry" />
        </mxCell>
        <mxCell id="p9WFtLZvtbjoeeWDvilJ-6" value="postgresql" style="strokeWidth=2;html=1;shape=mxgraph.flowchart.database;whiteSpace=wrap;" vertex="1" parent="p9WFtLZvtbjoeeWDvilJ-11">
          <mxGeometry x="40" y="50" width="60" height="80" as="geometry" />
        </mxCell>
        <mxCell id="p9WFtLZvtbjoeeWDvilJ-12" value="" style="group" vertex="1" connectable="0" parent="1">
          <mxGeometry x="420" y="280" width="120" height="130" as="geometry" />
        </mxCell>
        <mxCell id="p9WFtLZvtbjoeeWDvilJ-3" value="user-ms" style="rounded=1;whiteSpace=wrap;html=1;" vertex="1" parent="p9WFtLZvtbjoeeWDvilJ-12">
          <mxGeometry width="120" height="60" as="geometry" />
        </mxCell>
        <mxCell id="p9WFtLZvtbjoeeWDvilJ-8" value="&lt;div&gt;&lt;br&gt;&lt;/div&gt;mongo&lt;div&gt;NOSQL&lt;/div&gt;" style="strokeWidth=2;html=1;shape=mxgraph.flowchart.database;whiteSpace=wrap;" vertex="1" parent="p9WFtLZvtbjoeeWDvilJ-12">
          <mxGeometry x="40" y="50" width="60" height="80" as="geometry" />
        </mxCell>
        <mxCell id="p9WFtLZvtbjoeeWDvilJ-13" value="" style="group" vertex="1" connectable="0" parent="1">
          <mxGeometry x="200" y="520" width="120" height="130" as="geometry" />
        </mxCell>
        <mxCell id="p9WFtLZvtbjoeeWDvilJ-4" value="catalog-ms" style="rounded=1;whiteSpace=wrap;html=1;" vertex="1" parent="p9WFtLZvtbjoeeWDvilJ-13">
          <mxGeometry width="120" height="60" as="geometry" />
        </mxCell>
        <mxCell id="p9WFtLZvtbjoeeWDvilJ-7" value="postgresql" style="strokeWidth=2;html=1;shape=mxgraph.flowchart.database;whiteSpace=wrap;" vertex="1" parent="p9WFtLZvtbjoeeWDvilJ-13">
          <mxGeometry x="40" y="50" width="60" height="80" as="geometry" />
        </mxCell>
        <mxCell id="p9WFtLZvtbjoeeWDvilJ-16" style="edgeStyle=orthogonalEdgeStyle;rounded=0;orthogonalLoop=1;jettySize=auto;html=1;" edge="1" parent="1" source="p9WFtLZvtbjoeeWDvilJ-14" target="p9WFtLZvtbjoeeWDvilJ-1">
          <mxGeometry relative="1" as="geometry" />
        </mxCell>
        <mxCell id="p9WFtLZvtbjoeeWDvilJ-14" value="API GATEWAY" style="rounded=1;whiteSpace=wrap;html=1;" vertex="1" parent="1">
          <mxGeometry x="-20" y="280" width="120" height="60" as="geometry" />
        </mxCell>
        <mxCell id="p9WFtLZvtbjoeeWDvilJ-26" style="edgeStyle=orthogonalEdgeStyle;rounded=0;orthogonalLoop=1;jettySize=auto;html=1;exitX=0.5;exitY=1;exitDx=0;exitDy=0;entryX=0.75;entryY=0;entryDx=0;entryDy=0;exitPerimeter=0;" edge="1" parent="1" source="p9WFtLZvtbjoeeWDvilJ-6" target="p9WFtLZvtbjoeeWDvilJ-1">
          <mxGeometry relative="1" as="geometry" />
        </mxCell>
        <mxCell id="p9WFtLZvtbjoeeWDvilJ-27" value="5.1 - update order status" style="edgeLabel;html=1;align=center;verticalAlign=middle;resizable=0;points=[];" vertex="1" connectable="0" parent="p9WFtLZvtbjoeeWDvilJ-26">
          <mxGeometry x="-0.1778" y="3" relative="1" as="geometry">
            <mxPoint x="13" y="-23" as="offset" />
          </mxGeometry>
        </mxCell>
        <mxCell id="p9WFtLZvtbjoeeWDvilJ-17" value="Amazon SQS&lt;div&gt;payment&lt;/div&gt;" style="rounded=1;whiteSpace=wrap;html=1;" vertex="1" parent="1">
          <mxGeometry x="190" y="130" width="120" height="60" as="geometry" />
        </mxCell>
        <mxCell id="p9WFtLZvtbjoeeWDvilJ-18" style="edgeStyle=orthogonalEdgeStyle;rounded=0;orthogonalLoop=1;jettySize=auto;html=1;" edge="1" parent="1" source="p9WFtLZvtbjoeeWDvilJ-6" target="p9WFtLZvtbjoeeWDvilJ-17">
          <mxGeometry relative="1" as="geometry" />
        </mxCell>
        <mxCell id="p9WFtLZvtbjoeeWDvilJ-36" value="2" style="edgeLabel;html=1;align=center;verticalAlign=middle;resizable=0;points=[];" vertex="1" connectable="0" parent="p9WFtLZvtbjoeeWDvilJ-18">
          <mxGeometry x="-0.125" y="-3" relative="1" as="geometry">
            <mxPoint as="offset" />
          </mxGeometry>
        </mxCell>
        <mxCell id="p9WFtLZvtbjoeeWDvilJ-22" style="edgeStyle=orthogonalEdgeStyle;rounded=0;orthogonalLoop=1;jettySize=auto;html=1;" edge="1" parent="1" source="p9WFtLZvtbjoeeWDvilJ-1" target="p9WFtLZvtbjoeeWDvilJ-17">
          <mxGeometry relative="1" as="geometry" />
        </mxCell>
        <mxCell id="p9WFtLZvtbjoeeWDvilJ-23" value="1" style="edgeLabel;html=1;align=center;verticalAlign=middle;resizable=0;points=[];" vertex="1" connectable="0" parent="p9WFtLZvtbjoeeWDvilJ-22">
          <mxGeometry x="0.0154" y="1" relative="1" as="geometry">
            <mxPoint x="1" y="-4" as="offset" />
          </mxGeometry>
        </mxCell>
        <mxCell id="p9WFtLZvtbjoeeWDvilJ-28" style="edgeStyle=orthogonalEdgeStyle;rounded=0;orthogonalLoop=1;jettySize=auto;html=1;entryX=0;entryY=0.5;entryDx=0;entryDy=0;" edge="1" parent="1" source="p9WFtLZvtbjoeeWDvilJ-1" target="p9WFtLZvtbjoeeWDvilJ-3">
          <mxGeometry relative="1" as="geometry" />
        </mxCell>
        <mxCell id="p9WFtLZvtbjoeeWDvilJ-34" style="edgeStyle=orthogonalEdgeStyle;rounded=0;orthogonalLoop=1;jettySize=auto;html=1;exitX=0;exitY=0.75;exitDx=0;exitDy=0;entryX=1;entryY=0.75;entryDx=0;entryDy=0;" edge="1" parent="1" source="p9WFtLZvtbjoeeWDvilJ-32" target="p9WFtLZvtbjoeeWDvilJ-2">
          <mxGeometry relative="1" as="geometry" />
        </mxCell>
        <mxCell id="p9WFtLZvtbjoeeWDvilJ-35" value="aprovado/recusado" style="edgeLabel;html=1;align=center;verticalAlign=middle;resizable=0;points=[];" vertex="1" connectable="0" parent="p9WFtLZvtbjoeeWDvilJ-34">
          <mxGeometry x="-0.1689" relative="1" as="geometry">
            <mxPoint x="-1" as="offset" />
          </mxGeometry>
        </mxCell>
        <mxCell id="p9WFtLZvtbjoeeWDvilJ-38" value="4" style="edgeLabel;html=1;align=center;verticalAlign=middle;resizable=0;points=[];" vertex="1" connectable="0" parent="p9WFtLZvtbjoeeWDvilJ-34">
          <mxGeometry x="0.6" y="-3" relative="1" as="geometry">
            <mxPoint as="offset" />
          </mxGeometry>
        </mxCell>
        <mxCell id="p9WFtLZvtbjoeeWDvilJ-32" value="mercadopago (integração)" style="rounded=1;whiteSpace=wrap;html=1;" vertex="1" parent="1">
          <mxGeometry x="690" y="70" width="120" height="60" as="geometry" />
        </mxCell>
        <mxCell id="p9WFtLZvtbjoeeWDvilJ-33" style="edgeStyle=orthogonalEdgeStyle;rounded=0;orthogonalLoop=1;jettySize=auto;html=1;" edge="1" parent="1" source="p9WFtLZvtbjoeeWDvilJ-2" target="p9WFtLZvtbjoeeWDvilJ-32">
          <mxGeometry relative="1" as="geometry" />
        </mxCell>
        <mxCell id="p9WFtLZvtbjoeeWDvilJ-37" value="3" style="edgeLabel;html=1;align=center;verticalAlign=middle;resizable=0;points=[];" vertex="1" connectable="0" parent="p9WFtLZvtbjoeeWDvilJ-33">
          <mxGeometry x="-0.1286" relative="1" as="geometry">
            <mxPoint as="offset" />
          </mxGeometry>
        </mxCell>
        <mxCell id="p9WFtLZvtbjoeeWDvilJ-39" style="edgeStyle=orthogonalEdgeStyle;rounded=0;orthogonalLoop=1;jettySize=auto;html=1;exitX=0;exitY=0.5;exitDx=0;exitDy=0;entryX=0.5;entryY=0;entryDx=0;entryDy=0;" edge="1" parent="1">
          <mxGeometry relative="1" as="geometry">
            <mxPoint x="430" y="100" as="sourcePoint" />
            <mxPoint x="250" y="130" as="targetPoint" />
          </mxGeometry>
        </mxCell>
        <mxCell id="p9WFtLZvtbjoeeWDvilJ-40" value="5.2" style="edgeLabel;html=1;align=center;verticalAlign=middle;resizable=0;points=[];" vertex="1" connectable="0" parent="p9WFtLZvtbjoeeWDvilJ-39">
          <mxGeometry x="-0.2381" y="1" relative="1" as="geometry">
            <mxPoint x="-10" y="-11" as="offset" />
          </mxGeometry>
        </mxCell>
      </root>
    </mxGraphModel>
  </diagram>
</mxfile>
